<svg viewBox="0 0 360 800" xmlns="http://www.w3.org/2000/svg">
  <!-- Gradients -->
  <defs>
    <linearGradient id="headerGradient" x1="0%" y1="0%" x2="100%" y2="0%">
      <stop offset="0%" style="stop-color:#0F172A"/>
      <stop offset="100%" style="stop-color:#1E293B"/>
    </linearGradient>
    <linearGradient id="cardGradient" x1="0%" y1="0%" x2="100%" y2="0%">
      <stop offset="0%" style="stop-color:#FFFFFF"/>
      <stop offset="100%" style="stop-color:#F8FAFC"/>
    </linearGradient>
  </defs>

  <!-- Main Background -->
  <rect width="360" height="800" fill="#F1F5F9"/>
  
  <!-- Header Section -->
  <rect x="0" y="0" width="360" height="180" fill="url(#headerGradient)"/>
  <text x="24" y="64" font-size="24" fill="#FFFFFF" font-weight="bold">Hi, John! 👋</text>
  <text x="24" y="92" font-size="16" fill="#FFFFFF" opacity="0.8">Manage your properties</text>
  
  <!-- Quick Stats Cards -->
  <rect x="24" y="120" width="150" height="80" rx="16" fill="#FFFFFF"/>
  <text x="40" y="148" font-size="14" fill="#64748B">Active Turfs</text>
  <text x="40" y="176" font-size="24" fill="#0F172A" font-weight="bold">05</text>
  
  <rect x="186" y="120" width="150" height="80" rx="16" fill="#FFFFFF"/>
  <text x="202" y="148" font-size="14" fill="#64748B">Today's Bookings</text>
  <text x="202" y="176" font-size="24" fill="#0F172A" font-weight="bold">12</text>

  <!-- Action Buttons -->
  <rect x="24" y="220" width="312" height="60" rx="30" fill="#10B981"/>
  <text x="120" y="258" font-size="16" fill="#FFFFFF" font-weight="bold">+ Add New Property</text>
  
  <!-- Properties Section -->
  <rect x="0" y="300" width="360" height="500" rx="30" fill="#FFFFFF"/>
  <text x="24" y="340" font-size="20" fill="#0F172A" font-weight="bold">Your Properties</text>
  
  <!-- Search Bar -->
  <rect x="24" y="360" width="312" height="48" rx="24" fill="#F1F5F9"/>
  <text x="56" y="390" font-size="14" fill="#64748B">Search properties...</text>
  
  <!-- Property Cards -->
  <!-- Card 1 -->
  <rect x="24" y="424" width="312" height="100" rx="16" fill="url(#cardGradient)"/>
  <rect x="40" y="440" width="68" height="68" rx="12" fill="#F8FAFC"/>
  <text x="124" y="464" font-size="16" fill="#0F172A" font-weight="bold">Cricket Stadium</text>
  <text x="124" y="484" font-size="14" fill="#64748B">₹1,200/hr • Premium</text>
  <rect x="124" y="492" width="60" height="20" rx="10" fill="#DCFCE7"/>
  <text x="134" y="506" font-size="12" fill="#059669">Active</text>
  <circle cx="300" cy="474" r="16" fill="#F1F5F9"/>
  
  <!-- Card 2 -->
  <rect x="24" y="536" width="312" height="100" rx="16" fill="url(#cardGradient)"/>
  <rect x="40" y="552" width="68" height="68" rx="12" fill="#F8FAFC"/>
  <text x="124" y="576" font-size="16" fill="#0F172A" font-weight="bold">Football Ground</text>
  <text x="124" y="596" font-size="14" fill="#64748B">₹800/hr • Standard</text>
  <rect x="124" y="604" width="60" height="20" rx="10" fill="#FEF3C7"/>
  <text x="134" y="618" font-size="12" fill="#D97706">Pending</text>
  <circle cx="300" cy="586" r="16" fill="#F1F5F9"/>
  
  <!-- Bottom Navigation -->
  <rect x="0" y="736" width="360" height="64" fill="#FFFFFF"/>
  <rect x="24" y="744" width="312" height="48" rx="24" fill="#F8FAFC"/>
  
  <!-- Nav Icons -->
  <circle cx="90" cy="768" r="20" fill="#10B981"/>
  <circle cx="180" cy="768" r="20" fill="#F1F5F9"/>
  <circle cx="270" cy="768" r="20" fill="#F1F5F9"/>
  <text x="74" y="792" font-size="12" fill="#0F172A">Home</text>
  <text x="156" y="792" font-size="12" fill="#64748B">Analytics</text>
  <text x="252" y="792" font-size="12" fill="#64748B">Profile</text>
</svg>
